# xmcd
#
# Track frame offsets: 
#        150
#        19710
#        39274
#        62529
#        80562
#        99068
#        117006
#        133088
#        152957
#        169971
#
# Disc length: 2527 seconds
#
# Revision: 2
# Processed by: cddbd v1.5.2PL0 Copyright (c) Steve Scherf et al.
# Submitted via: ExactAudioCopy v0.99pb4
#
DISCID=7309dd0a
DTITLE=Jessy Martens and Band - Brand New Ride
DYEAR=2011
DGENRE=Blues
TTITLE0=Brand New Ride
TTITLE1=One Minute Love
TTITLE2=Touch My Blues Away
TTITLE3=Little Mama Don't Play
TTITLE4=Hey Mister
TTITLE5=Undone
TTITLE6=Forever Mine
TTITLE7=Marry Me
TTITLE8=Hands Up
TTITLE9=Fool 4U
EXTD=
EXTT0=
EXTT1=
EXTT2=
EXTT3=
EXTT4=
EXTT5=
EXTT6=
EXTT7=
EXTT8=
EXTT9=
PLAYORDER=
